<svg xmlns="http://www.w3.org/2000/svg" width="225" height="23" fill="none" xmlns:v="https://vecta.io/nano"><g fill="#000"><path d="M0 0h22.6432v22.6432H0z"/><path fill-rule="evenodd" d="M0 2.76056v2.76057h11.3267 11.3269l-.0529-2.71147L22.548.09818 11.274.04909 0 0v2.76056zm40.3391 8.56404v6.3744h1.0414 1.0412l.0529-2.7115.0527-2.7115 2.5212-.0531 2.5212-.0531v-.8507-.8507h-2.5756-2.5756l.0544-1.85524.0544-1.85522 3.1872-.05214 3.1871-.05213v-.85169-.85169h-4.2812-4.2813v6.37431zM55.276 5.08596c-.6997.1684-1.3925 1.02123-1.6469 2.02761-.1545.61041-.247 2.1884-.247 4.21103 0 3.7529.2168 4.9218 1.0633 5.7333l.5693.5459 3.2703.0556c3.6861.0626 4.2775-.0864 4.9473-1.2467.7611-1.3187.7628-8.85502.0021-10.17251-.6432-1.11389-1.2939-1.29218-4.6286-1.26745-1.6221.01199-3.1205.06299-3.3298.11322zm14.0014 4.28831c.0187 5.12703.1405 6.40973.677 7.13493.7216.9748 1.2188 1.0946 4.5397 1.0946 3.5082 0 4.0857-.1857 4.7515-1.5275.3389-.6831.382-1.2545.4498-5.9409l.075-5.18511h-1.1636-1.1634v5.10801c0 4.7069-.0274 5.1328-.348 5.423-.2835.2567-.7756.3149-2.6595.3149-3.1586 0-2.9541.3977-3.0511-5.92987l-.0754-4.91604h-1.0241-1.0238l.0159 4.42398zm16.1577 1.95033v6.3744h1.0466 1.0465v-4.9473c0-2.721.0641-4.94571.1427-4.9438s1.1982 1.95968 2.4885 4.3505c3.3373 6.1845 2.8252 5.5406 4.4063 5.5406h1.3348v-6.3744-6.37431h-.9514-.9514v4.75697c0 2.68444-.0744 4.75694-.1709 4.75694s-1.2623-1.9909-2.5961-4.424-2.5547-4.57387-2.7129-4.75692c-.2252-.26087-.5904-.33299-1.6851-.33299h-1.3976v6.37431zm16.3639 0v6.3744h3.226c3.905 0 4.94-.1871 5.801-1.0483.888-.8874 1.148-2.0969 1.148-5.3261s-.26-4.4386-1.148-5.32606c-.861-.86121-1.896-1.04825-5.801-1.04825h-3.226v6.37431zm15.603 0v6.3744h4.472 4.471v-.8563-.8562h-3.425-3.425v-1.998-1.9979h2.854 2.854v-.8563-.8562h-2.854-2.854V8.47045 6.6628h3.425 3.425v-.85625-.85626h-4.471-4.472v6.37431zm14.081 0v6.3744h1.141 1.142v-2.6639-2.6639h2.081c1.144 0 2.298.0825 2.563.1836.575.2188.64.4568.826 3.0511l.143 1.9979 1.063.0562 1.064.0561-.089-2.0541c-.111-2.5899-.326-3.2914-1.135-3.6954l-.62-.3096.581-.2405c.871-.3605 1.134-1.0545 1.134-2.98715 0-2.02856-.356-2.88044-1.352-3.23055-.416-.14633-2.05-.23081-4.594-.23785l-3.948-.01066v6.37431zm16.616-6.09669c-.932.40529-1.233 1.03721-1.342 2.81308-.117 1.91192.155 3.06631.828 3.50721.339.2221 1.381.4011 3.465.595 1.64.1526 3.088.3625 3.218.4664.152.1202.238.6956.238 1.5858 0 1.7564-.055 1.7911-2.854 1.7911-2.376 0-2.853-.1519-2.857-.9105-.006-1.2231-.146-1.3729-1.282-1.3729h-1.05l.121.8829c.066.4854.121 1.0835.121 1.3289s.25.7257.555 1.0675l.555.6214 3.22.0632c5.225.1024 5.562-.1208 5.564-3.6836 0-2.2048-.154-2.7081-.966-3.1423-.206-.1107-1.722-.3244-3.367-.4751-3.506-.3212-3.539-.3412-3.421-2.06376.108-1.58217.286-1.67902 2.957-1.60424 2.419.06755 2.506.11759 2.511 1.43946l.003.80868h1.047 1.046l-.011-.99896c-.016-1.49121-.347-2.27231-1.131-2.66352-.55-.27495-1.178-.33147-3.615-.32557-2.076.00495-3.128.08487-3.553.26982zm20.868 6.09669v6.3744h1.042 1.041l.053-2.7115.053-2.7115 2.521-.0531 2.521-.0531v-.8507-.8507h-2.576-2.575l.054-1.85524.055-1.85522 3.187-.05214 3.187-.05213v-.85169-.85169h-4.281-4.282v6.37431zm13.336-1.95033c.019 5.12703.14 6.40973.677 7.13493.722.9748 1.219 1.0946 4.54 1.0946 3.508 0 4.085-.1857 4.751-1.5275.339-.6831.382-1.2545.45-5.9409l.075-5.18511h-1.164-1.163v5.10801c0 4.7069-.027 5.1328-.348 5.423-.284.2567-.776.3149-2.66.3149-3.149 0-2.941.4043-3.047-5.92188l-.082-4.92403h-1.023-1.022l.016 4.42398zm16.158 1.95033v6.3744h1.046 1.047v-4.9473c0-2.721.064-4.94609.142-4.94475s1.204 1.96843 2.501 4.37105c3.333 6.1727 2.814 5.521 4.394 5.521h1.335v-6.3744-6.37431h-.951-.952v4.75697c0 2.68444-.074 4.75694-.171 4.75694s-1.262-1.9909-2.596-4.424-2.554-4.57387-2.713-4.75692c-.225-.26087-.59-.33299-1.685-.33299h-1.397v6.37431zm16.364 0v6.3744h3.225c3.906 0 4.941-.1871 5.802-1.0483.887-.8874 1.148-2.0969 1.148-5.3261s-.261-4.4386-1.148-5.32606c-.861-.86121-1.896-1.04825-5.802-1.04825h-3.225v6.37431zM61.1059 7.02661c.446.36096.4493.39274.4493 4.29799 0 4.8653.1225 4.6632-2.8278 4.6592-2.5183-.0032-2.735-.0706-2.9716-.9225-.2507-.9029-.249-6.57696.0023-7.48174.1077-.3876.341-.73904.5222-.78661s1.2387-.0959 2.352-.10808c1.7306-.01884 2.0896.03083 2.4736.34174zm47.8291.01675c.69.57236.856 1.40349.856 4.28124 0 4.3386-.152 4.5368-3.549 4.6339l-2.35.0672v-4.7011-4.701l2.35.06717c1.73.04947 2.44.14233 2.693.35259zm29.988.01979c.35.35011.392.57616.33 1.80155-.04.79271-.177 1.507-.314 1.6452-.166.1661-1.031.2639-2.708.3065l-2.465.0628V8.7709 6.6628h2.378c2.164 0 2.415.03615 2.779.40035zm83.037-.01979c.69.57236.856 1.40349.856 4.28124 0 4.3386-.151 4.5368-3.549 4.6339l-2.349.0672v-4.7011-4.701l2.349.06717c1.731.04947 2.44.14233 2.693.35259zM0 19.6954v2.9508h11.3265 11.3266l-.0526-2.9017-.0525-2.9018-11.274-.0491L0 16.7445v2.9509z"/></g><path fill="#a1a1a1" d="M0 5.51807h22.6432v5.70836H0z"/><path fill="#7c7c7c" d="M0 11.2264h22.6432v5.51808H0z"/></svg>