<svg xmlns="http://www.w3.org/2000/svg" width="175" height="24" fill="none" xmlns:v="https://vecta.io/nano"><path fill-rule="evenodd" d="M51.1112.06914c-2.5408.33371-4.8446 1.87871-6.0354 4.04769-.9214 1.67831-1.1744 3.74213-1.1064 9.02417.0457 3.5487.1452 4.4014.6792 5.8226.924 2.4588 3.2512 4.3798 5.9278 4.8931.7675.1472 2.0709.1671 2.8453.0435.5922-.0945 1.3801-.1143 4.5504-.1143l3.8343-.0736c0-.0405-.479-.9387-1.0646-1.9959l-1.0646-1.9829c0-.0333.11-.341.2443-.6838.2885-.736.5392-1.8518.6615-2.9438.1386-1.2374.1162-7.2266-.0314-8.43019-.2888-2.3538-.9393-3.8738-2.2481-5.2527C57.1857 1.24543 55.8278.494 54.2383.17359c-.6806-.13724-2.4322-.19568-3.1271-.10445zM97.474.07421c-1.987.24062-3.7779 1.21259-5.0669 2.74988-1.7367 2.07117-2.0872 3.79857-2.0063 9.88831.0501 3.7718.2052 5.0324.8036 6.5274.7464 1.8649 2.6064 3.5718 4.67 4.2855 2.1238.7347 4.8016.5953 6.7206-.3497 1.958-.9639 3.431-2.7651 4.028-4.9256.387-1.4017.513-2.9251.515-6.2163.001-3.5802-.156-5.30088-.61-6.69436-.563-1.72718-1.606-3.00835-3.345-4.1082-1.588-1.0044-3.6006-1.41226-5.709-1.15693zM7.16719.22038C6.09466.36262 4.84067.79856 3.96857 1.33245c-1.55476.95182-2.6233 2.48797-2.99598 4.30717-.19541.95367-.16265 2.60399.06992 3.52237.44068 1.74021 1.31738 2.90501 2.8038 3.72491 1.07967.5955 1.76234.7769 4.17505 1.1094 2.53624.3494 3.18784.5799 3.72204 1.3164.3414.4708.4845.9762.4825 1.7046-.0042 1.5582-.8255 2.4666-2.54057 2.8098-.66419.133-2.34361.1298-3.14813-.006-.75732-.1277-1.62482-.4038-2.18612-.6957-.46252-.2406-1.16744-.744-1.37-.9782l-.13366-.1546-1.42371 1.4796L0 20.9519l.34721.3274C2.32356 23.1434 4.7643 23.9989 8.10893 24c4.22557.0013 7.37867-1.9082 8.31647-5.0364.5611-1.8717.329-4.1975-.5881-5.8928-.3487-.6446-1.2739-1.6379-1.859-1.9957-.5153-.3151-1.4517-.6786-2.1109-.8195-.2859-.0611-1.3368-.2229-2.33531-.35968-2.42363-.33199-3.25575-.61612-3.84569-1.31318-.46267-.54667-.57978-.88181-.57978-1.65874 0-.62305.01875-.71985.22323-1.15179.37667-.79579 1.12486-1.3599 2.12925-1.60537.68658-.16775 2.5831-.10631 3.3828.10959.7384.19939 1.433.55253 1.9613.99712l.4126.34728 1.3967-1.40155 1.3967-1.40162-.3686-.36114c-1.2465-1.22138-3.0401-1.98909-5.2452-2.245C9.65861.12601 7.84154.13101 7.16719.22038zM23.0848 12.0158l.0174 11.7344 7.4695.0181 7.4696.0182v-2.0364-2.0364h-5.2201-5.2201v-2.8934-2.8934h4.4646 4.4645v-2.0718-2.07185h-4.4645-4.4646V7.03273 4.28222h5.2201 5.2201V2.28184.28146h-7.4869-7.487l.0174 11.73434zm44.2357-3.35776l.138 8.85616c.8059 3.3797 3.0423 5.5751 6.4366 6.3188.8084.1771 2.681.1789 3.5174.0035 2.9815-.6256 5.1862-2.585 6.0881-5.4108.3928-1.2306.3765-.8317.4032-9.8391l.0247-8.30514h-2.2006-2.2006v8.0258c0 7.72064-.0051 8.04654-.1338 8.56994-.2011.818-.46 1.3128-.964 1.8427-.8717.9165-2.1803 1.2981-3.5625 1.0389-1.5059-.2823-2.4902-1.2183-2.9425-2.7981-.1132-.3955-.1234-1.0112-.1423-8.55271L71.7619.28146h-2.2325-2.2325l.0236 8.37658zm46.2915 3.35776l.018 11.7344h2.163 2.164l.017-11.7344.018-11.73434h-2.199-2.198l.017 11.73434zm14.074-.1429l-4.108 11.7532-.04.1617 2.288-.0188 2.289-.0188.605-1.7861.713-2.0897.109-.3036h3.996 3.996l.653 2.0897.653 2.0897 2.282.0188c1.256.0103 2.283-.0058 2.284-.0358s-1.846-5.3188-4.104-11.7531L135.197.28146h-1.721-1.722l-4.068 11.59144zm24.716-.8936v10.6978l1.409-1.4633 1.408-1.4633V9.51599.28146h-1.408-1.409V10.9793zm5.633-2.92916v7.76866l1.408-1.4633 1.408-1.4632V6.58687.28146h-1.408-1.408v7.76868zm5.701-2.96484v4.80383l1.408-1.46328 1.408-1.46327V3.62202.28146h-1.408-1.408V5.0853zm5.632-1.87471v2.92912h2.816H175V3.21059.28146h-2.816-2.816v2.92913zM53.348 4.32751c.8511.23054 1.6931.89474 2.0859 1.64538.5119.97833.633 2.13169.6327 6.02511-.0003 3.0634-.0618 4.1828-.2784 5.0667-.4198 1.7125-1.7329 2.7352-3.529 2.7485-1.1561.0086-2.0179-.3291-2.7314-1.0704-.9979-1.0366-1.1823-2.0885-1.1823-6.7448 0-4.48625.1788-5.60581 1.0571-6.62193.9038-1.04556 2.4447-1.45513 3.9454-1.04856zm46.4415-.03186c1.2845.31291 2.2715 1.35447 2.5725 2.7148.355 1.6078.401 7.62055.074 9.57455-.172 1.0249-.478 1.6661-1.08 2.2682-1.313 1.3122-3.8618 1.2961-5.2013-.0328-1.0507-1.0424-1.2532-2.1449-1.2536-6.8224-.0005-4.54033.1882-5.65861 1.1289-6.6933.8741-.96133 2.34-1.35469 3.7595-1.00905zm35.2975 7.51515l1.222 3.8051c-.014.015-1.276.0188-2.804.0085l-2.779-.0186 1.084-3.2864 1.406-4.24625.323-.96004.15.45994 1.398 4.23775zm32.014-1.2774l-1.407 1.4646h4.653H175v-1.4646-1.46457h-3.246-3.246l-1.407 1.46457zm-5.632 5.8582l-1.407 1.4646h7.469H175v-1.4646-1.4645h-6.062-6.062l-1.407 1.4645zm-5.611 5.8381c-.767.7945-1.395 1.4696-1.395 1.5003s4.621.0559 10.269.0559H175v-1.5003-1.5003h-8.874-8.874l-1.394 1.4444z" fill="#000"/></svg>