<svg xmlns="http://www.w3.org/2000/svg" xmlns:xlink="http://www.w3.org/1999/xlink" viewBox="0 0 278 86" xmlns:v="https://vecta.io/nano"><style><![CDATA[.J{enable-background:new}.K{opacity:.9}.L{opacity:.8}.M{opacity:.7}.N{opacity:.6}.O{opacity:.5}.P{opacity:.4}]]></style><defs><path id="A" d="M0 3h278v81H0z"/><path id="B" d="M47.4 55.1c1.6 0 2.8-1.3 2.8-2.8s-1.3-2.8-2.8-2.8c-1.6 0-2.8 1.3-2.8 2.8s1.2 2.8 2.8 2.8z"/><path id="C" d="M52.1 60.5c1.4 0 2.6-1.2 2.6-2.6s-1.2-2.6-2.6-2.6-2.6 1.2-2.6 2.6c0 1.5 1.2 2.6 2.6 2.6z"/><path id="D" d="M63.2 80.1c.8 0 1.4-.6 1.4-1.4s-.6-1.4-1.4-1.4-1.4.6-1.4 1.4.6 1.4 1.4 1.4z"/><path id="E" d="M64.2 84.5c.6 0 1.1-.5 1.1-1.1s-.5-1.1-1.1-1.1-1.1.5-1.1 1.1.5 1.1 1.1 1.1z"/><path id="F" d="M54.9 42.7c1.4 0 2.6-1.2 2.6-2.6s-1.2-2.6-2.6-2.6-2.6 1.2-2.6 2.6 1.2 2.6 2.6 2.6z"/><path id="G" d="M72.7 37.4c.8 0 1.5-.7 1.5-1.5s-.7-1.5-1.5-1.5-1.5.7-1.5 1.5.7 1.5 1.5 1.5z"/><path id="H" d="M38.6 27.4c1.3 0 2.3-1.1 2.3-2.3 0-1.3-1.1-2.3-2.3-2.3-1.3 0-2.3 1.1-2.3 2.3-.1 1.3 1 2.3 2.3 2.3z"/><path id="I" d="M14 42.1c1 0 1.9-.8 1.9-1.9 0-1-.8-1.9-1.9-1.9-1 0-1.9.8-1.9 1.9s.8 1.9 1.9 1.9z"/></defs><clipPath id="J"><use xlink:href="#A"/></clipPath><g clip-path="url(#J)"><path d="M96.2 26.5h6.5c1.6 0 2.7.4 3.5 1.2.5.5.8 1.2.8 2 0 1.5-.8 2.3-2 2.8 1.5.5 2.5 1.4 2.5 3.1 0 2.2-1.8 3.5-4.8 3.5h-6.5V26.5zm5.6 5c1.1 0 1.6-.4 1.6-1.1s-.6-1.1-1.6-1.1h-2.2v2.2h2.2 0zm.5 4.8c1.1 0 1.6-.5 1.6-1.2s-.6-1.2-1.8-1.2h-2.7v2.3h2.9v.1zm13.4-9.8h3.5v9.6h6.1v3.1h-9.6V26.5zm16.5 6.3c0-3.6 2.9-6.7 6.8-6.7s6.8 2.9 6.8 6.6-2.9 6.6-6.8 6.6c-3.9.1-6.8-2.8-6.8-6.5zm10.1 0c0-1.9-1.3-3.5-3.3-3.5-1.9 0-3.2 1.5-3.2 3.4s1.3 3.4 3.3 3.4c1.9.1 3.2-1.4 3.2-3.3h0zm11.5 0c0-3.8 2.8-6.7 6.7-6.7 2.6 0 4.2 1.1 5.4 2.7l-2.7 2c-.7-.9-1.5-1.5-2.8-1.5-1.8 0-3.1 1.5-3.1 3.4s1.3 3.4 3.1 3.4c1.3 0 2.1-.6 2.8-1.5l2.7 1.9c-1.2 1.6-2.8 2.8-5.6 2.8-3.6.1-6.5-2.6-6.5-6.5h0zm20.3-6.3h3.5v5.2l4.3-5.2h4.2l-4.8 5.5 4.9 7.3H182l-3.2-4.7-1.3 1.4v3.3H174V26.5zm18.3 6.3c0-3.8 2.8-6.7 6.7-6.7 2.6 0 4.2 1.1 5.4 2.7l-2.7 2c-.7-.9-1.5-1.5-2.8-1.5-1.8 0-3.1 1.5-3.1 3.4s1.3 3.4 3.1 3.4c1.3 0 2.1-.6 2.8-1.5l2.7 1.9c-1.2 1.6-2.8 2.8-5.6 2.8-3.6.1-6.5-2.6-6.5-6.5h0zm20.1-6.3h3.5v4.7h4.5v-4.7h3.5v12.7h-3.5v-4.8H216v4.8h-3.5V26.5zm24.8-.1h3.4l5.4 12.8h-3.8l-.9-2.2h-4.9l-.9 2.2h-3.8l5.5-12.8zm3 7.7l-1.4-3.6-1.4 3.6h2.8 0zm13.5-7.6h3.5v12.7h-3.5V26.5zm12.5 0h3.3l5.3 6.7v-6.7h3.5v12.7h-3l-5.4-6.9v6.9h-3.5V26.5h-.2zm-170 30.4c0-3.6 2.7-6.6 6.5-6.6 2.3 0 3.6.8 4.9 2l-.9 1.1c-1.2-1.1-2.3-1.8-4-1.8-2.8 0-4.9 2.2-4.9 5.2 0 2.9 2.1 5.3 4.9 5.3 1.8 0 2.9-.7 4.1-1.9l.9.9c-1.3 1.3-2.8 2.2-5 2.2-3.8.2-6.5-2.8-6.5-6.4h0zm25.2-6.5h1.3l5.7 12.8H127l-1.5-3.4h-6.9l-1.5 3.4h-1.5l5.9-12.8zm3.5 8.1l-2.9-6.5-2.9 6.5h5.8zm12.6-8h4.7c2.8 0 4.7 1.5 4.7 4 0 2.7-2.2 4.1-5 4.1h-3v4.5h-1.4V50.5h0zm4.6 7c2.1 0 3.5-1.2 3.5-2.8 0-1.8-1.4-2.7-3.4-2.7h-3.2v5.6h3.1v-.1zm14.2-7h1.4v12.7h-1.4V50.5zm15 1.3h-4.2v-1.3h10v1.3H173v11.4h-1.4V51.8h-.2zm18-1.4h1.3l5.7 12.8H195l-1.5-3.4h-6.9l-1.5 3.4h-1.5l5.8-12.8h0zm3.6 8.1l-2.9-6.5-2.9 6.5h5.8zm12.5-8h1.4v11.4h7.2v1.3h-8.6V50.5h0z" fill="#292e35"/><g fill="#222"><use xlink:href="#B"/><use xlink:href="#C" class="J K"/><path d="M56.1 65.7c1.3 0 2.3-1.1 2.3-2.3 0-1.3-1.1-2.3-2.3-2.3s-2.3 1.1-2.3 2.3c-.1 1.2 1 2.3 2.3 2.3z" class="J L"/><path d="M59.1 70.5c1 0 1.9-.8 1.9-1.9s-.8-1.9-1.9-1.9-1.9.8-1.9 1.9.9 1.9 1.9 1.9z" class="J M"/><path d="M61.6 75.2c.8 0 1.5-.7 1.5-1.5s-.7-1.5-1.5-1.5-1.5.7-1.5 1.5.6 1.5 1.5 1.5z" class="J N"/><use xlink:href="#D" class="J O"/><use xlink:href="#E" class="J P"/><path d="M48.1 45.6c1.6 0 2.8-1.3 2.8-2.8S49.6 40 48.1 40c-1.6 0-2.8 1.3-2.8 2.8s1.2 2.8 2.8 2.8z"/><use xlink:href="#F" class="J K"/><path d="M61.2 40.2c1.3 0 2.3-1.1 2.3-2.3 0-1.3-1.1-2.3-2.3-2.3-1.3 0-2.3 1.1-2.3 2.3 0 1.3 1 2.3 2.3 2.3z" class="J L"/><path d="M67.1 38.5c1 0 1.9-.8 1.9-1.9 0-1-.8-1.9-1.9-1.9-1 0-1.9.8-1.9 1.9 0 1 .9 1.9 1.9 1.9z" class="J M"/><use xlink:href="#G" class="J N"/><path d="M78 37.3c.8 0 1.4-.6 1.4-1.4s-.6-1.4-1.4-1.4-1.4.6-1.4 1.4.6 1.4 1.4 1.4z" class="J O"/><path d="M82.8 37.4c.6 0 1.1-.5 1.1-1.1s-.5-1.1-1.1-1.1-1.1.5-1.1 1.1.5 1.1 1.1 1.1z" class="J P"/><path d="M39.2 42c1.6 0 2.8-1.3 2.8-2.8 0-1.6-1.3-2.8-2.8-2.8-1.6 0-2.8 1.3-2.8 2.8s1.2 2.8 2.8 2.8z"/><path d="M38.7 34.3c1.4 0 2.6-1.2 2.6-2.6s-1.2-2.6-2.6-2.6-2.6 1.2-2.6 2.6c0 1.5 1.2 2.6 2.6 2.6z" class="J K"/><use xlink:href="#H" class="J L"/><path d="M39.2 21c1 0 1.9-.8 1.9-1.9s-.8-1.9-1.9-1.9c-1 0-1.9.8-1.9 1.9s.8 1.9 1.9 1.9z" class="J M"/><path d="M40.2 15.1c.8 0 1.5-.7 1.5-1.5s-.7-1.5-1.5-1.5-1.5.7-1.5 1.5.7 1.5 1.5 1.5z" class="J N"/><path d="M41.8 9.9c.8 0 1.4-.6 1.4-1.4s-.6-1.4-1.4-1.4-1.4.6-1.4 1.4.6 1.4 1.4 1.4z" class="J O"/><path d="M43.8 5.1c.6 0 1.1-.5 1.1-1.1s-.5-1.1-1.1-1.1-1.1.5-1.1 1.1.5 1.1 1.1 1.1z" class="J P"/><path d="M33 49.4c1.6 0 2.8-1.3 2.8-2.8s-1.3-2.8-2.8-2.8c-1.6 0-2.8 1.3-2.8 2.8s1.2 2.8 2.8 2.8z"/><path d="M25.8 47.3c1.4 0 2.6-1.2 2.6-2.6s-1.2-2.6-2.6-2.6-2.6 1.2-2.6 2.6 1.2 2.6 2.6 2.6z" class="J K"/><path d="M19.5 45c1.3 0 2.3-1.1 2.3-2.3 0-1.3-1.1-2.3-2.3-2.3-1.3 0-2.3 1.1-2.3 2.3-.1 1.3 1 2.3 2.3 2.3z" class="J L"/><use xlink:href="#I" class="J M"/><path d="M8.9 39c.8 0 1.5-.7 1.5-1.5S9.7 36 8.9 36s-1.5.7-1.5 1.5c0 .9.7 1.5 1.5 1.5z" class="J N"/><path d="M4.7 35.9c.8 0 1.4-.6 1.4-1.4s-.6-1.4-1.4-1.4-1.4.6-1.4 1.4.6 1.4 1.4 1.4z" class="J O"/><path d="M1.1 32.3c.6 0 1.1-.5 1.1-1.1s-.5-1.1-1.1-1.1-1.1.5-1.1 1.1.5 1.1 1.1 1.1z" class="J P"/><path d="M38 57.5c1.6 0 2.8-1.3 2.8-2.8s-1.3-2.8-2.8-2.8c-1.6 0-2.8 1.3-2.8 2.8s1.3 2.8 2.8 2.8z"/><path d="M34.1 63.5c1.4 0 2.6-1.2 2.6-2.6s-1.2-2.6-2.6-2.6-2.6 1.2-2.6 2.6c.1 1.4 1.2 2.6 2.6 2.6z" class="J K"/><path d="M30.3 68.7c1.3 0 2.3-1.1 2.3-2.3 0-1.3-1.1-2.3-2.3-2.3-1.3 0-2.3 1.1-2.3 2.3-.1 1.3 1 2.3 2.3 2.3z" class="J L"/><path d="M26.2 72.7c1 0 1.9-.8 1.9-1.9 0-1-.8-1.9-1.9-1.9-1 0-1.9.8-1.9 1.9s.8 1.9 1.9 1.9z" class="J M"/><path d="M22.2 76.3c.8 0 1.5-.7 1.5-1.5s-.7-1.5-1.5-1.5-1.5.7-1.5 1.5c-.1.8.6 1.5 1.5 1.5z" class="J N"/><path d="M17.9 79.3c.8 0 1.4-.6 1.4-1.4s-.6-1.4-1.4-1.4-1.4.6-1.4 1.4.7 1.4 1.4 1.4z" class="J O"/><path d="M13.7 81.3c.6 0 1.1-.5 1.1-1.1s-.5-1.1-1.1-1.1-1.1.5-1.1 1.1c.1.6.5 1.1 1.1 1.1z" class="J P"/></g></g></svg>