<svg xmlns="http://www.w3.org/2000/svg" xmlns:xlink="http://www.w3.org/1999/xlink" viewBox="0 0 388.5 141.6" xmlns:v="https://vecta.io/nano"><circle cx="185.7" cy="50.4" r="45" fill="none" stroke="#000" stroke-width="4"/><path d="M30.5 135.6h-1.9l-2.3-5.5H17c-.3.9-.7 1.8-1.1 2.8l-1.1 2.7h-1.9l8.1-19.3h1.4l8.1 19.3zm-12.7-7.2h7.8l-3.9-9.2-3.9 9.2zM52 134v1.6H39.2v-19.3H41V134h11zm25.6 1.6h-1.9l-2.3-5.5h-9.3c-.3.9-.7 1.8-1.1 2.8l-1.1 2.7H60l8.1-19.3h1.4l8.1 19.3zm-12.8-7.2h7.8l-3.9-9.2-3.9 9.2zm29.6 3.8L88 120.3v15.2h-1.7v-19.2h1.5l7.2 13.3 7.4-13.2h1.4v19.2h-1.7v-15.4l-3.4 6-3.3 6h-1z"/><use xlink:href="#B"/><path d="M141.9 116.3c1.3 0 2.4.3 3.5.8s2.1 1.2 2.9 2.1 1.5 1.9 2 3.1.7 2.4.7 3.7-.2 2.6-.7 3.7c-.5 1.2-1.1 2.2-2 3.1-.8.9-1.8 1.6-2.9 2.1s-2.3.8-3.5.8h-5.2v-19.3h5.2zm0 17.6c1 0 2-.2 2.9-.6s1.7-1 2.4-1.7 1.2-1.5 1.6-2.5.6-2 .6-3.1-.2-2.1-.6-3.1-.9-1.8-1.6-2.5-1.5-1.3-2.4-1.7-1.9-.6-2.9-.6h-3.5v15.8h3.5zm35.2 1.7h-1.9l-2.3-5.5h-9.3c-.3.9-.7 1.8-1.1 2.8l-1.1 2.7h-1.9l8.1-19.3h1.4l8.1 19.3zm-12.8-7.2h7.8l-3.9-9.2-3.9 9.2zm48.9-5.5c0 1.3-.3 2.4-1 3.5-.7 1-1.5 1.8-2.6 2.4l4.1 6.9h-1.9l-3.8-6.3c-.4.1-.9.2-1.4.2h-4.9v6.1H200v-19.3h6.6c.9 0 1.8.2 2.6.5s1.5.8 2.1 1.4 1.1 1.3 1.4 2.1c.3.7.5 1.6.5 2.5zm-11.5 4.9h.7 1 1 2.2c.7 0 1.3-.1 1.9-.4s1.1-.6 1.6-1.1c.4-.4.8-1 1.1-1.6s.4-1.2.4-1.9-.1-1.3-.4-1.9-.6-1.1-1.1-1.5c-.4-.4-1-.8-1.6-1-.6-.3-1.2-.4-1.9-.4h-2.2-1-1-.7v9.8z"/><use xlink:href="#B" x="109.1"/><path d="M254.3 120.7c-.3-.8-.8-1.5-1.4-2.1-.7-.6-1.4-.9-2.3-.9-.5 0-1 .1-1.5.3s-.9.5-1.3.8-.7.7-.9 1.2-.3.9-.3 1.4c0 1 .3 1.8.9 2.4s1.5 1 2.5 1.2c.8.1 1.6.2 2.1.4.6.2 1.1.4 1.4.6.4.2.7.4.9.7l.5.5s0 .1.1.1h.1c.4.5.7 1.1.9 1.6.2.6.2 1.2.2 1.9 0 1.6-.6 2.9-1.7 3.8s-2.7 1.4-4.6 1.4c-.6 0-1.1-.1-1.7-.3s-1.1-.4-1.7-.7c-.5-.3-1-.7-1.4-1.2s-.7-1-1-1.6l1.4-1c.3.6.6 1.1 1 1.5s.8.7 1.2.9.8.4 1.3.5c.4.1.8.2 1.2.2 1.5 0 2.6-.3 3.3-1s1.1-1.5 1.1-2.6c0-1.2-.4-2.1-1.3-2.7-.9-.7-2.2-1.1-3.8-1.3-.8-.2-1.6-.4-2.2-.8s-1.1-.8-1.4-1.3c-.4-.5-.6-1-.8-1.6s-.2-1.1-.2-1.7c0-.8.2-1.5.5-2.2s.7-1.2 1.3-1.7c.5-.5 1.2-.8 1.9-1.1s1.5-.4 2.2-.4c1.1 0 2.2.4 3.1 1.2.9.7 1.6 1.7 2 2.9l-1.6.7z"/><use xlink:href="#B" x="151.7"/><path d="M304.5 135.6h-1.9l-2.3-5.5H291c-.3.9-.7 1.8-1.1 2.8l-1.1 2.7h-1.9l8.1-19.3h1.4l8.1 19.3zm-12.8-7.2h7.8l-3.9-9.2-3.9 9.2zm34.7-5.5c0 1.3-.3 2.4-1 3.5-.7 1-1.5 1.8-2.6 2.4l4.1 6.9H325l-3.8-6.3c-.4.1-.9.2-1.4.2h-4.9v6.1h-1.7v-19.3h6.6c.9 0 1.8.2 2.6.5s1.5.8 2.1 1.4 1.1 1.3 1.4 2.1c.3.7.5 1.6.5 2.5zm-11.5 4.9h.7 1 1 2.2c.7 0 1.3-.1 1.9-.4s1.1-.6 1.6-1.1c.4-.4.8-1 1.1-1.6s.4-1.2.4-1.9-.1-1.3-.4-1.9-.6-1.1-1.1-1.5c-.4-.4-1-.8-1.6-1-.6-.3-1.2-.4-1.9-.4h-2.2-1-1-.7v9.8zm30.9 6.4c1.2 0 2.3-.2 3.3-.7s2-1.2 2.9-2.1l1.2 1.2c-1 1.1-2.2 1.9-3.4 2.4-1.3.6-2.6.8-4 .8s-2.7-.3-3.8-.8c-1.2-.5-2.2-1.2-3.1-2.1s-1.6-1.9-2.1-3.1-.8-2.5-.8-3.8c0-1.4.3-2.6.8-3.8s1.2-2.3 2.1-3.2 1.9-1.6 3.1-2.1 2.5-.8 3.8-.8 2.6.3 3.9.9 2.4 1.4 3.5 2.5l-1.3 1.1c-.9-.8-1.8-1.5-2.8-2s-2.1-.7-3.3-.7c-1.1 0-2.2.2-3.2.6s-1.8 1-2.6 1.7c-.7.7-1.3 1.6-1.8 2.6-.4 1-.6 2.1-.6 3.2s.2 2.2.6 3.2 1 1.9 1.8 2.6c.7.7 1.6 1.3 2.6 1.7 1 .5 2 .7 3.2.7zm31-17.9v19.3h-1.7v-8.7h-10.6v8.7h-1.7v-19.3h1.7v9h10.6v-9h1.7z"/><g fill="none" stroke="#000" stroke-width="3" stroke-miterlimit="10"><path d="M182.9 30.2l-18.4 34.9-.9-.4L183 28.8zM176.39999 65h30v.5h-30z"/><path d="M187.1 30.1l19.3 35.3h1.3L187 28.7z"/></g><path d="M185 29l1.5 2.3-1.5-7.9-1.6 8.2"/><defs ><path id="B" d="M126.1 123.9v1.7h-9.9v8.3h10.9v1.7h-12.7v-19.3h12.7v1.7h-10.9v5.9h9.9z"/></defs></svg>