<?xml version="1.0" encoding="utf-8"?>
<!-- Generator: Adobe Illustrator 23.0.1, SVG Export Plug-In . SVG Version: 6.00 Build 0)  -->
<svg version="1.1" id="layer" xmlns="http://www.w3.org/2000/svg" xmlns:xlink="http://www.w3.org/1999/xlink" x="0px" y="0px"
	 viewBox="0 0 652 289" style="enable-background:new 0 0 652 289;" xml:space="preserve">
<style type="text/css">
	.st0{fill:#222222;}
</style>
<path id="Shape" class="st0" d="M57.1,156.1c1.1,2.5,2.6,4.8,4.4,6.8c-3.9,2.1-7.9,3.1-12.4,3.1c-13.2,0-22.7-8.8-22.7-22.9
	c0-14.2,10-23,22.7-23c4.5,0,8.1,1,11.7,2.9c-1.7,2.1-3.1,4.5-4.1,7.1c-2.2-0.9-4.4-1.3-6.7-1.3c-7.8,0-13.9,5.1-13.9,14.3
	c0,8.7,5.9,14.3,14.2,14.3C52.8,157.4,55,157,57.1,156.1z M83.6,120.2c13,0,22.3,9.3,22.3,23c0,13.6-9.4,22.9-22.3,22.9
	s-22.2-9.3-22.2-22.9C61.4,129.5,70.8,120.2,83.6,120.2L83.6,120.2z M83.6,128.6c-7.2,0-12.5,5.6-12.5,14.6
	c0,8.8,5.3,14.5,12.5,14.5c7.4,0,12.6-5.6,12.6-14.5C96.2,134.2,91.1,128.6,83.6,128.6z M112.1,165v-43.9h9.7V165H112.1z
	 M110.9,107.7c0-3.4,2.8-6,6-6s6,2.7,6,6c0,3.5-2.8,6.2-6,6.2C113.7,113.9,110.9,111.1,110.9,107.7L110.9,107.7z M130.2,123.9
	c6-2.4,13.5-3.8,19.8-3.8c11,0,18.1,4.3,18.1,16.6v28.2h-9.6v-27.2c0-6.3-3.9-8.6-9.3-8.6c-3.4,0-6.8,0.5-9.4,1.3v34.7h-9.7
	L130.2,123.9L130.2,123.9z M176.2,97.7h9.7v24.7c2-1.1,6-2.2,9.9-2.2c12.5,0,21.9,8.1,21.9,22.2c0,14.2-9.3,23.7-25.3,23.7
	c-6.2,0-11.7-1.3-16.1-2.9L176.2,97.7L176.2,97.7z M185.8,156.7c1.9,0.6,4.3,0.9,6.7,0.9c8.9,0,15.2-5,15.2-15.1
	c0-8.5-6-13.6-13.3-13.6c-3.8,0-6.7,1-8.7,2.1v25.7H185.8z M245.4,135.6c0-4.8-3.5-6.9-8.3-6.9c-5,0-8.9,1.5-12.5,3.6v-8.6
	c3.8-2.2,8.7-3.6,14-3.6c9.5,0,16.2,4,16.2,15v29c-4.1,1.1-9.9,1.8-14.8,1.8c-11.2,0-19.4-3.5-19.4-13.4c0-8.9,7.5-13.3,20-13.3h4.8
	V135.6L245.4,135.6z M245.4,145.8h-4.1c-6.7,0-11.1,2-11.1,6.4c0,4.6,4.1,6.3,10,6.3c1.5,0,3.5-0.2,5.3-0.5L245.4,145.8L245.4,145.8
	z M261.9,153.1c4,3.1,8.8,5,13.2,5c4.3,0,7.1-1.5,7.1-5c0-3.6-2.5-4.9-8.1-6.3c-9-2.1-12.8-5.7-12.8-13.4c0-8.9,6.6-13.3,15.4-13.3
	c4.9,0,8.8,1.1,12.4,3.4v9c-3.8-2.8-7.5-4.5-12.1-4.5c-4.2,0-6.4,2.1-6.4,5s1.9,4.4,6.8,5.7c9.9,2.2,14.1,5.9,14.1,13.9
	c0,9.2-6.9,13.4-16.3,13.4c-5.1,0-10.1-1.4-13.4-3.6L261.9,153.1L261.9,153.1z M304.8,145.3v0.2c0.6,7.8,7.2,12.1,14,12.1
	c6,0,10.2-1.4,14.5-4.3v8.6c-3.9,2.8-9.7,4.1-15.2,4.1c-13.5,0-22.6-8.7-22.6-22.6c0-14,9-23.3,20.9-23.3c12.6,0,18.5,8.2,18.5,20.2
	v5L304.8,145.3L304.8,145.3z M325.8,139c-0.2-6.8-3.5-10.6-9.8-10.6c-5.6,0-9.7,4-10.9,10.6H325.8z"/>
<path id="Rectangle-path" class="st0" d="M369.3,95.6h0.9c0.9,0,1.6,0.7,1.6,1.6v90c0,0.9-0.7,1.6-1.6,1.6h-0.9
	c-0.9,0-1.6-0.7-1.6-1.6v-90C367.7,96.3,368.5,95.6,369.3,95.6z"/>
<path id="a" class="st0" d="M425,165.1h-5.4L403,120.8h4.9l14.6,39.7l14.6-39.7h4.7L425,165.1z M468.1,149.1h-24v0.1
	c0,8,5.6,12.7,11.8,12.7c4.5,0,7.6-1.2,10.8-3.7v4.5c-2.8,2.2-6.9,3.1-10.8,3.1c-9.2,0-16.2-6.4-16.2-17c0-9.8,6.5-17,15.1-17
	c8,0,13.3,4.9,13.3,14.2L468.1,149.1L468.1,149.1z M444.4,145.3h19.4c-0.3-6.8-3.9-9.5-9.2-9.5C449.7,135.8,445.7,139.2,444.4,145.3
	z M473,165.1v-30.8c4.2-1.6,9-2.5,13.3-2.5c8,0,12.9,3.2,12.9,11.3V165h-4.4v-21c0-6.6-4.6-8.1-8.9-8.1c-3.3,0-6.3,0.6-8.6,1.2V165
	H473V165.1z M501.9,136.4v-3.8h4.9v-7.9h4.4v7.9h8.9v3.8h-8.9v19.8c0,4.2,1.6,5.8,4.6,5.8c2,0,3.7-0.7,5.9-1.8v4
	c-1.9,1-4.1,1.6-6.8,1.6c-4.6,0-8-2.5-8-9.2v-20.3h-5V136.4z M550.5,132.6v32.1c-3.9,0.7-7.8,1.1-11.1,1.1
	c-9.2,0-14.4-3.2-14.4-11.3v-21.9h4.4v21.7c0,6.1,4.7,7.7,9.8,7.7c2.2,0,4.7-0.1,7-0.4v-28.9h4.3V132.6z M562.3,138v27.1h-4.4v-29.5
	c3.3-2.2,7.4-3.5,11.8-3.5c1.7,0,3.5,0.2,5.3,0.7v4.4c-1.9-0.7-4.1-0.8-5.6-0.8C566.3,136.3,563.9,137,562.3,138z M603.3,149.1h-24
	v0.1c0,8,5.6,12.7,11.8,12.7c4.5,0,7.6-1.2,10.8-3.7v4.5c-2.8,2.2-6.9,3.1-10.8,3.1c-9.2,0-16.2-6.4-16.2-17c0-9.8,6.5-17,15.1-17
	c8,0,13.3,4.9,13.3,14.2L603.3,149.1L603.3,149.1z M579.6,145.3H599c-0.3-6.8-3.9-9.5-9.2-9.5C584.8,135.8,580.8,139.2,579.6,145.3z
	 M606.6,163.2v-5.1c2.7,2.5,5.5,3.9,8.9,3.9c4,0,6.5-1.6,6.5-5.2c0-3.9-2.8-4.9-7.8-6.6c-5.6-1.9-8-4.3-8-9.5c0-5.7,4.2-8.8,10-8.8
	c3.1,0,6.2,0.7,8.7,2.5v4.8c-2.5-2.1-5-3.5-8.7-3.5c-3.5,0-5.7,1.9-5.7,5c0,3,1.7,4.5,6.6,6.1c5.5,1.7,9.2,3.9,9.2,9.8
	c0,6.4-4.9,9.3-10.8,9.3C612,165.8,608.6,164.8,606.6,163.2z"/>
</svg>
