<svg xmlns="http://www.w3.org/2000/svg" width="208" height="23" fill="none" xmlns:v="https://vecta.io/nano"><path fill-rule="evenodd" d="M.02672 11.0315L.05355 22.063H10.8891h10.8356l.0269-11.0315L21.7783 0H10.8891 0l.02672 11.0315zm7.54863-2.21697v4.86137h-.9994-.9994V8.81453 3.95318h.9994.9994v4.86135zm4.31315 2.19027v7.0516h-.9994-.99935v-7.0516-7.05162h.99935.9994v7.05162zm4.3132-2.19027v4.86137h-.9994-.9994V8.88579l.0702-4.86135c.0385-.03921.4882-.07126.9994-.07126h.9292v4.86135zm17.5684 2.13687v6.6777h1.0521 1.0519v-2.5593-2.5592l4.8129-.0317 4.813-.0317.6288-.3132c3.5476-1.7661 2.8398-7.02254-1.0427-7.74426-.3962-.07361-2.5771-.11603-5.9701-.11603h-5.3459v6.67769zm30.5232-6.49072l-3.4347 6.59752-3.384 6.4907c-.0258.0441.4885.0793 1.1428.0783l1.1898-.0019.7396-1.4672.7397-1.4672 4.4335-.0279 4.4336-.0279.7478 1.497.748 1.497h1.1535c.6345 0 1.1537-.0277 1.1537-.0615s-1.5504-3.0388-3.4452-6.6777l-3.4452-6.61619h-1.3378c-1.1666 0-1.3501.02393-1.4351.18697zm21.5509 6.49072v6.6777h1.052 1.052l.0042-5.4757.0041-5.47573.4795.5293 5.0115 5.47573 4.5322 4.9464h1.3496 1.3497l-.027-6.651-.027-6.65097h-1.0522-1.052l-.0526 5.41479-.0526 5.41478-4.9854-5.44149-4.9853-5.4415h-1.3004-1.3003v6.67769zm26.6868-6.60717c-.039.03953-.071.4966-.071 1.01575v.94374h3.156 3.156v5.66268 5.6627h1.052 1.052v-5.6627-5.66268h3.16 3.16l-.031-.98829-.03-.9883-7.267-.02746c-3.997-.01506-7.298.00492-7.337.04456zm26.439 6.60717v6.6777h6.838 6.838V16.614v-1.015h-5.786-5.786v-1.8163-1.8163h3.84 3.84v-1.015-1.01503h-3.84-3.84V8.12005 6.30372h5.786 5.786v-1.015-1.01501h-6.838-6.838v6.67769zm25.564 0v6.6777h1.052 1.052v-2.5658-2.5657l3.327.0282 3.328.0282 1.752 2.5108 1.752 2.5108 1.232.0302c.678.0165 1.233-.0004 1.233-.0375s-.758-1.1908-1.683-2.5634c-1.818-2.6957-1.77-2.6111-1.5-2.6112 2.16-.001 3.815-3.55364 2.699-5.79103-1.076-2.15587-1.737-2.32896-8.898-2.32896h-5.346v6.67769zm32.862-6.33045l-6.26 12.01985-.52.9883 1.187-.0025 1.187-.0025.749-1.4666.749-1.4666 4.431-.0279 4.431-.0279.738 1.497.739 1.497h1.156c.636 0 1.157-.0303 1.157-.0673s-1.549-3.0418-3.442-6.6776l-3.441-6.61049h-1.343-1.342l-.176.34724zM45.2939 6.50459c1.5901.73347 1.5994 3.00068.0157 3.80221l-.5348.2706h-4.4503-4.4504V8.44058 6.30372l4.4973.00235 4.9225.19852zm22.1223 2.90804l1.5666 3.15337s-1.5116.0318-3.3056.0162l-3.2616-.0282 1.6392-3.12513 1.6951-3.12515c.0307 0 .7805 1.399 1.6663 3.10891zM176.053 6.50566c1.757.82343 1.51 3.418-.378 3.96784-.205.0598-2.199.1039-4.697.1039h-4.34V8.44058 6.30372l4.497.00235 4.918.19959zm24.552 2.90398l1.564 3.15336s-1.513.0348-3.305.0192l-3.257-.0282 1.637-3.12481 1.694-3.12515c.031-.00011.781 1.39729 1.667 3.1056z" fill="#000"/></svg>