<svg xmlns="http://www.w3.org/2000/svg" width="273.6" height="60" viewBox="0 0 273.6 85" xmlns:v="https://vecta.io/nano"><defs><filter id="A" filterUnits="userSpaceOnUse" x="7.6" y="12" width="89.1" height="65.2"><feColorMatrix values="1 0 0 0 0  0 1 0 0 0  0 0 1 0 0  0 0 0 1 0"/></filter></defs><mask maskUnits="userSpaceOnUse" x="7.6" y="12" width="89.1" height="65.2" id="B"><path d="M7.6,77.1h89.1V12H7.6V77.1z" fill="#fff" filter="url(#A)"/></mask><g mask="url(#B)"><path d="M85.7 47.7v-6.4l6.2 3.2-6.2 3.2zm9.6-5.6L82 35.3v18.5L95.3 47c.9-.5 1.5-1.4 1.5-2.4-.1-1.1-.6-2-1.5-2.5zm-80.5-8.3c5.3 0 9.7 3.9 10.5 8.9h-14c.4-3.3 1.7-6.4 3.5-8.9zm14.6-7.4c9.4 0 17.1 7.2 18 16.3H29.1c-.8-6-5.3-10.9-11.1-12.2 3.1-2.6 7.1-4.1 11.4-4.1zm10.8-10.8c15.3 0 27.9 12 28.8 27.1H51.2c-.9-11.2-10.3-20-21.7-20-4.1 0-8 1.2-11.3 3.2 5.3-6.3 13.2-10.3 22-10.3zm0 57.8c-8.8 0-16.7-4-22-10.2 3.3 2 7.1 3.2 11.3 3.2 11.4 0 20.8-8.8 21.7-20H69c-.9 15.1-13.5 27-28.8 27zm-11.1-27h18.4c-.9 9.1-8.7 16.3-18 16.3-4.3 0-8.3-1.5-11.4-4.1 5.7-1.3 10.2-6.2 11-12.2zm-14.3 8.9c-1.9-2.5-3.1-5.6-3.4-8.9h14c-.9 5-5.3 8.9-10.6 8.9zm56.6-20C67.5 21.8 55 12 40.2 12c-18 0-32.6 14.6-32.6 32.6s14.6 32.6 32.6 32.6c14.8 0 27.3-9.9 31.2-23.4 1.1-3.8 2.9-7.4 6.9-7.4v-3.7c-3.9 0-5.7-3.6-6.9-7.4z" fill-rule="evenodd" fill="#222"/></g><defs><filter id="C" filterUnits="userSpaceOnUse" x="110.1" y="13.9" width="26.4" height="60.1"><feColorMatrix values="1 0 0 0 0  0 1 0 0 0  0 0 1 0 0  0 0 0 1 0"/></filter></defs><mask maskUnits="userSpaceOnUse" x="110.1" y="13.9" width="26.4" height="60.1" id="D"><path d="M110.1,74V13.9h26.4V74H110.1z" fill="#fff" filter="url(#C)"/></mask><g mask="url(#D)"><path d="M119.2 26.5c0-3 1.8-4.7 4.4-4.7 2.9 0 4.3 2.2 4.3 5.4v5.2h8.1v-5.2c0-7.9-4.9-13.3-12.5-13.3-8.7 0-13.1 6.4-13.1 14.2 0 7.4 5.4 14.2 10.1 19 4.7 5.1 7.2 8.9 7.2 13.9 0 3.2-1.5 5.2-4.7 5.2-3.1 0-4.7-2.1-4.7-5.7v-5h-8.2v5.1c0 8.2 5.1 13.3 13.2 13.3 7.4 0 13.2-5.1 13.2-14.3 0-7.3-4.1-13.2-9.6-19-5.2-5.6-7.7-8.4-7.7-14.1z" fill-rule="evenodd" fill="#222"/></g><path d="M151.7 16h-9.2v58.1h21.8v-8.4h-12.6V16zm105.4 0l-4.7 38.8-4.9-38.8h-7.1l-5.5 38.8-4.2-38.8h-9.1l8.4 58.1h8.1l5.3-34.6 4.8 34.6h8.2l9.2-58.1h-8.5zm-67.9 49.1c-11.3 0-20.5-9.5-20.5-21.2s9.2-21.2 20.5-21.2 20.5 9.5 20.5 21.2-9.2 21.2-20.5 21.2zm0-51.3C172.5 13.8 159 27.3 159 44s13.5 30.2 30.2 30.2 30.2-13.5 30.2-30.2-13.5-30.2-30.2-30.2z" fill-rule="evenodd" fill="#222"/></svg>